STARTFONT 2.1
COMMENT
COMMENT Converted from OpenType font "manrope-regular.otf" by "otf2bdf 3.0".
COMMENT
FONT -FreeType-Manrope-Medium-R-Normal--33-240-100-100-P-151-ISO10646-1
SIZE 24 100 100
FONTBOUNDINGBOX 32 41 -1 -8
STARTPROPERTIES 19
FOUNDRY "FreeType"
FAMILY_NAME "Manrope"
WEIGHT_NAME "Medium"
SLANT "R"
SETWIDTH_NAME "Normal"
ADD_STYLE_NAME ""
PIXEL_SIZE 33
POINT_SIZE 240
RESOLUTION_X 100
RESOLUTION_Y 100
SPACING "P"
AVERAGE_WIDTH 151
CHARSET_REGISTRY "ISO10646"
CHARSET_ENCODING "1"
FONT_ASCENT 35
FONT_DESCENT 9
COPYRIGHT "Copyright 2019-2021 The Manrope Project Authors (https://github.com/sharanda/manrope)"
_OTF_FONTFILE "manrope-regular.otf"
_OTF_PSNAME "Manrope-Regular"
ENDPROPERTIES
CHARS 191
STARTCHAR 0020
ENCODING 32
SWIDTH 210 0
DWIDTH 7 0
BBX 0 0 0 0
BITMAP
ENDCHAR
STARTCHAR 0021
ENCODING 33
SWIDTH 300 0
DWIDTH 10 0
BBX 2 24 4 0
BITMAP
C0
C0
C0
C0
C0
C0
C0
C0
C0
C0
C0
C0
C0
C0
C0
C0
C0
C0
00
00
00
C0
C0
C0
ENDCHAR
STARTCHAR 0022
ENCODING 34
SWIDTH 390 0
DWIDTH 13 0
BBX 8 6 2 18
BITMAP
C7
C7
C7
C7
C7
C7
ENDCHAR
STARTCHAR 0023
ENCODING 35
SWIDTH 930 0
DWIDTH 31 0
BBX 26 24 2 0
BITMAP
001C1C00
00181800
00181800
00383800
00303000
00303000
00303000
3FFFFFC0
3FFFFFC0
00606000
00E0E000
00E0E000
00C0C000
00C0C000
01C1C000
FFFFFF00
FFFFFF00
01818000
03838000
03838000
03030000
03030000
07070000
06060000
ENDCHAR
STARTCHAR 0024
ENCODING 36
SWIDTH 600 0
DWIDTH 20 0
BBX 17 30 1 -3
BITMAP
00C000
00C000
00C000
07F000
1FFC00
3E3E00
380700
700380
700380
700180
700000
700000
3C0000
1F8000
07F800
00FE00
001F00
000380
000180
000180
E00180
E00180
700380
780780
3F1F00
1FFE00
03F800
00C000
00C000
00C000
ENDCHAR
STARTCHAR 0025
ENCODING 37
SWIDTH 900 0
DWIDTH 30 0
BBX 26 24 2 0
BITMAP
0F000100
3FC00380
79E00700
E0700E00
C0301C00
C0303800
C0307000
E070E000
70E1C000
3FC38000
1F870000
000E0000
001C0000
00387E00
0070FF00
00E1C380
01C381C0
038300C0
070300C0
0E0300C0
1C0381C0
3801E380
7000FF00
20007C00
ENDCHAR
STARTCHAR 0026
ENCODING 38
SWIDTH 660 0
DWIDTH 22 0
BBX 19 24 2 0
BITMAP
07E000
1FF800
3E7C00
380E00
700800
700000
700000
700000
700000
380000
1C0000
1E0000
7F0000
73C380
E1E380
C07380
C03B80
C01F80
C00F00
E00700
700F80
7E3FC0
3FFCE0
0FF040
ENDCHAR
STARTCHAR 0027
ENCODING 39
SWIDTH 210 0
DWIDTH 7 0
BBX 2 6 2 18
BITMAP
C0
C0
C0
C0
C0
C0
ENDCHAR
STARTCHAR 0028
ENCODING 40
SWIDTH 420 0
DWIDTH 14 0
BBX 8 34 5 -6
BITMAP
02
07
0E
1C
1C
38
30
70
60
60
E0
E0
C0
C0
C0
C0
C0
C0
C0
C0
C0
C0
E0
E0
60
60
70
30
38
1C
1C
0E
07
06
ENDCHAR
STARTCHAR 0029
ENCODING 41
SWIDTH 420 0
DWIDTH 14 0
BBX 9 34 1 -6
BITMAP
2000
E000
7000
3800
1800
1C00
0C00
0E00
0600
0600
0700
0300
0300
0300
0300
0300
0380
0380
0300
0300
0300
0300
0300
0700
0600
0600
0E00
0C00
1C00
1800
3800
7000
E000
2000
ENDCHAR
STARTCHAR 002A
ENCODING 42
SWIDTH 450 0
DWIDTH 15 0
BBX 11 11 1 13
BITMAP
0600
0600
0600
C660
FFE0
7FC0
0F00
1F00
3B80
31C0
1080
ENDCHAR
STARTCHAR 002B
ENCODING 43
SWIDTH 570 0
DWIDTH 19 0
BBX 15 16 2 4
BITMAP
0180
0180
0180
0180
0180
0180
0180
FFFE
FFFE
0180
0180
0180
0180
0180
0180
0180
ENDCHAR
STARTCHAR 002C
ENCODING 44
SWIDTH 270 0
DWIDTH 9 0
BBX 3 7 2 -4
BITMAP
E0
E0
E0
E0
20
60
C0
ENDCHAR
STARTCHAR 002D
ENCODING 45
SWIDTH 420 0
DWIDTH 14 0
BBX 10 2 2 9
BITMAP
FFC0
FFC0
ENDCHAR
STARTCHAR 002E
ENCODING 46
SWIDTH 240 0
DWIDTH 8 0
BBX 3 3 3 0
BITMAP
E0
E0
E0
ENDCHAR
STARTCHAR 002F
ENCODING 47
SWIDTH 390 0
DWIDTH 13 0
BBX 9 24 2 0
BITMAP
0380
0380
0300
0700
0700
0600
0600
0E00
0E00
0C00
0C00
1C00
1C00
1800
1800
3800
3800
3000
7000
7000
6000
6000
E000
E000
ENDCHAR
STARTCHAR 0030
ENCODING 48
SWIDTH 600 0
DWIDTH 20 0
BBX 16 24 2 0
BITMAP
07E0
1FF8
3E7C
780E
700E
6007
E007
E007
E007
E007
E007
E007
E007
E007
E007
E007
E007
E007
6007
700E
781E
3E7C
1FF8
07E0
ENDCHAR
STARTCHAR 0031
ENCODING 49
SWIDTH 390 0
DWIDTH 13 0
BBX 7 24 2 0
BITMAP
0E
3E
FE
EE
CE
0E
0E
0E
0E
0E
0E
0E
0E
0E
0E
0E
0E
0E
0E
0E
0E
0E
0E
0E
ENDCHAR
STARTCHAR 0032
ENCODING 50
SWIDTH 570 0
DWIDTH 19 0
BBX 15 24 2 0
BITMAP
07C0
1FF0
3EF8
701C
E00E
E00E
C006
C006
0006
0006
000E
001C
003C
0078
00F0
01C0
0380
0700
1E00
3C00
7800
F000
FFFE
FFFE
ENDCHAR
STARTCHAR 0033
ENCODING 51
SWIDTH 540 0
DWIDTH 18 0
BBX 14 24 2 0
BITMAP
FFFC
FFFC
001C
0038
0070
00E0
03C0
0780
0F00
1FC0
1FF0
0078
003C
001C
000C
000C
000C
000C
C01C
C01C
E038
79F8
3FF0
0FC0
ENDCHAR
STARTCHAR 0034
ENCODING 52
SWIDTH 600 0
DWIDTH 20 0
BBX 16 24 2 0
BITMAP
01C0
01C0
0380
0380
0300
0700
0600
0E00
0C00
1C00
1818
3818
3818
7018
7018
E018
E018
FFFF
FFFF
0018
0018
0018
0018
0018
ENDCHAR
STARTCHAR 0035
ENCODING 53
SWIDTH 570 0
DWIDTH 19 0
BBX 16 24 2 0
BITMAP
7FFC
7FFC
6000
6000
6000
6000
6000
6000
67C0
FFF0
FCF8
F01C
200E
0006
0006
0007
0007
0006
C00E
E00E
701C
3EF8
1FF0
07C0
ENDCHAR
STARTCHAR 0036
ENCODING 54
SWIDTH 630 0
DWIDTH 21 0
BBX 17 24 2 0
BITMAP
03E000
0FF800
1F3E00
380E00
700400
600000
E00000
E00000
E00000
E7F000
EFFC00
FC1E00
F80E00
F00700
E00300
E00380
E00380
E00300
600300
700700
380E00
3F7C00
0FF800
03E000
ENDCHAR
STARTCHAR 0037
ENCODING 55
SWIDTH 510 0
DWIDTH 17 0
BBX 14 24 1 0
BITMAP
FFFC
FFFC
001C
001C
0018
0038
0030
0070
0070
0060
00E0
00C0
01C0
01C0
0380
0380
0300
0700
0600
0E00
0E00
0C00
1C00
1800
ENDCHAR
STARTCHAR 0038
ENCODING 56
SWIDTH 570 0
DWIDTH 19 0
BBX 15 24 2 0
BITMAP
07E0
1FF0
3EFC
701C
700C
600E
600E
600E
701C
383C
3FF8
1FF0
3E7C
701C
E00E
E006
E006
E006
E006
E00E
701C
3E7C
1FF8
07E0
ENDCHAR
STARTCHAR 0039
ENCODING 57
SWIDTH 630 0
DWIDTH 21 0
BBX 16 24 2 0
BITMAP
07E0
1FF8
3F7C
780E
7007
E007
E003
E003
E003
E007
6007
700F
3C1F
1FFB
0FE3
0003
0003
0003
0007
1007
380E
3E7C
1FF8
07E0
ENDCHAR
STARTCHAR 003A
ENCODING 58
SWIDTH 300 0
DWIDTH 10 0
BBX 3 12 4 3
BITMAP
E0
E0
E0
00
00
00
00
00
00
E0
E0
E0
ENDCHAR
STARTCHAR 003B
ENCODING 59
SWIDTH 300 0
DWIDTH 10 0
BBX 3 21 4 -4
BITMAP
E0
E0
E0
00
00
00
00
00
00
00
00
00
00
00
E0
E0
E0
E0
60
40
C0
ENDCHAR
STARTCHAR 003C
ENCODING 60
SWIDTH 600 0
DWIDTH 20 0
BBX 9 16 5 2
BITMAP
0100
0380
0700
0E00
1C00
3800
7000
E000
E000
7000
3800
1C00
0E00
0700
0380
0100
ENDCHAR
STARTCHAR 003D
ENCODING 61
SWIDTH 750 0
DWIDTH 25 0
BBX 17 8 4 8
BITMAP
FFFF80
FFFF80
000000
000000
000000
000000
FFFF80
FFFF80
ENDCHAR
STARTCHAR 003E
ENCODING 62
SWIDTH 600 0
DWIDTH 20 0
BBX 9 15 6 2
BITMAP
4000
E000
7000
3800
1C00
0E00
0700
0380
0380
0700
0E00
1C00
3800
7000
6000
ENDCHAR
STARTCHAR 003F
ENCODING 63
SWIDTH 510 0
DWIDTH 17 0
BBX 14 24 2 0
BITMAP
0FC0
3FF0
7CF8
E038
E01C
C01C
001C
001C
0018
0038
0070
01E0
03C0
0380
0700
0700
0700
0700
0000
0000
0000
0700
0700
0700
ENDCHAR
STARTCHAR 0040
ENCODING 64
SWIDTH 900 0
DWIDTH 30 0
BBX 24 24 3 -3
BITMAP
00FF80
07FFE0
0F80F0
1C003C
38000C
70000E
600007
E07D83
C0FF83
C1C783
C18383
C18183
C18183
C18183
C18383
C1FFC7
E0FEFE
60107C
700000
380000
1C0000
0F80C0
03FFC0
00FF00
ENDCHAR
STARTCHAR 0041
ENCODING 65
SWIDTH 630 0
DWIDTH 21 0
BBX 19 24 1 0
BITMAP
00E000
01F000
01F000
01B000
03B800
03B800
031800
071C00
071C00
060C00
0E0E00
0E0600
0C0600
1C0700
1C0300
180380
3FFF80
3FFF80
3001C0
7001C0
6000C0
6000E0
E000E0
C00060
ENDCHAR
STARTCHAR 0042
ENCODING 66
SWIDTH 600 0
DWIDTH 20 0
BBX 17 24 2 0
BITMAP
FFF000
FFFC00
E01E00
E00700
E00700
E00300
E00300
E00700
E00700
E00E00
FFFC00
FFFC00
E01F00
E00700
E00380
E00180
E00180
E00180
E00180
E00380
E00780
E01F00
FFFE00
FFF800
ENDCHAR
STARTCHAR 0043
ENCODING 67
SWIDTH 720 0
DWIDTH 24 0
BBX 21 24 1 0
BITMAP
01FE00
07FF80
0FCFC0
1E00E0
380070
700038
700038
600018
E00000
E00000
E00000
E00000
E00000
E00000
E00000
E00000
600018
700038
700038
380070
1C00E0
0F8FC0
07FF80
01FE00
ENDCHAR
STARTCHAR 0044
ENCODING 68
SWIDTH 660 0
DWIDTH 22 0
BBX 19 24 2 0
BITMAP
FFF000
FFFC00
E03F00
E00700
E00380
E001C0
E001C0
E000C0
E000E0
E000E0
E000E0
E000E0
E000E0
E000E0
E000E0
E000E0
E000C0
E001C0
E001C0
E00380
E00700
E03F00
FFFC00
FFF000
ENDCHAR
STARTCHAR 0045
ENCODING 69
SWIDTH 570 0
DWIDTH 19 0
BBX 15 24 2 0
BITMAP
FFFE
FFFE
E000
E000
E000
E000
E000
E000
E000
E000
E000
FFF8
FFF8
E000
E000
E000
E000
E000
E000
E000
E000
E000
FFFE
FFFE
ENDCHAR
STARTCHAR 0046
ENCODING 70
SWIDTH 510 0
DWIDTH 17 0
BBX 14 24 2 0
BITMAP
FFFC
FFFC
E000
E000
E000
E000
E000
E000
E000
E000
E000
FFF0
FFF0
E000
E000
E000
E000
E000
E000
E000
E000
E000
E000
E000
ENDCHAR
STARTCHAR 0047
ENCODING 71
SWIDTH 720 0
DWIDTH 24 0
BBX 21 24 1 0
BITMAP
01FE00
07FF80
0FCFC0
1E01E0
3800F0
700070
700030
600000
E00000
E00000
E00000
E00000
E007F8
E007F8
E00018
E00018
600038
700038
700030
380070
1C00E0
0F87C0
07FF80
01FE00
ENDCHAR
STARTCHAR 0048
ENCODING 72
SWIDTH 690 0
DWIDTH 23 0
BBX 18 24 2 0
BITMAP
E000C0
E000C0
E000C0
E000C0
E000C0
E000C0
E000C0
E000C0
E000C0
E000C0
E000C0
FFFFC0
FFFFC0
E000C0
E000C0
E000C0
E000C0
E000C0
E000C0
E000C0
E000C0
E000C0
E000C0
E000C0
ENDCHAR
STARTCHAR 0049
ENCODING 73
SWIDTH 240 0
DWIDTH 8 0
BBX 2 24 3 0
BITMAP
C0
C0
C0
C0
C0
C0
C0
C0
C0
C0
C0
C0
C0
C0
C0
C0
C0
C0
C0
C0
C0
C0
C0
C0
ENDCHAR
STARTCHAR 004A
ENCODING 74
SWIDTH 450 0
DWIDTH 15 0
BBX 13 24 0 0
BITMAP
0038
0038
0038
0038
0038
0038
0038
0038
0038
0038
0038
0038
0038
0038
0038
0038
0038
0038
0038
E038
F070
79F0
3FE0
0F80
ENDCHAR
STARTCHAR 004B
ENCODING 75
SWIDTH 600 0
DWIDTH 20 0
BBX 17 24 2 0
BITMAP
E00700
E00E00
E01C00
E03800
E07800
E0F000
E1E000
E3C000
E38000
E70000
EE0000
FC0000
FE0000
EF0000
E78000
E38000
E1C000
E0E000
E07000
E03800
E01C00
E00E00
E00700
E00380
ENDCHAR
STARTCHAR 004C
ENCODING 76
SWIDTH 510 0
DWIDTH 17 0
BBX 14 24 3 0
BITMAP
C000
C000
C000
C000
C000
C000
C000
C000
C000
C000
C000
C000
C000
C000
C000
C000
C000
C000
C000
C000
C000
C000
FFFC
FFFC
ENDCHAR
STARTCHAR 004D
ENCODING 77
SWIDTH 840 0
DWIDTH 28 0
BBX 24 24 2 0
BITMAP
E00007
E00007
F0000F
F0000F
F8001F
F8001F
FC003F
EC0037
EE0077
EE0067
E60067
E700E7
E300C7
E381C7
E18187
E1C387
E0C307
E0E707
E06607
E07E07
E03C07
E03C07
E03807
E01807
ENDCHAR
STARTCHAR 004E
ENCODING 78
SWIDTH 690 0
DWIDTH 23 0
BBX 18 24 2 0
BITMAP
E000C0
F000C0
F000C0
F800C0
FC00C0
EE00C0
EE00C0
E700C0
E380C0
E380C0
E1C0C0
E0E0C0
E0E0C0
E070C0
E038C0
E038C0
E01CC0
E00EC0
E00EC0
E007C0
E003C0
E003C0
E001C0
E000C0
ENDCHAR
STARTCHAR 004F
ENCODING 79
SWIDTH 720 0
DWIDTH 24 0
BBX 22 24 1 0
BITMAP
01FE00
07FF80
0FC7C0
1E00E0
380070
700038
700038
600018
E0001C
E0001C
E0001C
E0001C
E0001C
E0001C
E0001C
E0001C
600018
700038
700038
380070
1C00E0
0F87C0
07FF80
01FE00
ENDCHAR
STARTCHAR 0050
ENCODING 80
SWIDTH 600 0
DWIDTH 20 0
BBX 17 24 2 0
BITMAP
FFF800
FFFC00
E01F00
E00700
E00380
E00380
E00180
E00180
E00180
E00380
E00380
E00700
E01F00
FFFE00
FFF800
E00000
E00000
E00000
E00000
E00000
E00000
E00000
E00000
E00000
ENDCHAR
STARTCHAR 0051
ENCODING 81
SWIDTH 720 0
DWIDTH 24 0
BBX 22 24 1 0
BITMAP
01FE00
07FF80
0FC7C0
1E00E0
380070
700038
700038
600018
E0001C
E0001C
E0001C
E0001C
E0001C
E0001C
E0001C
E0001C
600118
7003B8
7003F8
3800F0
1C00F0
0F8FF8
07FF9C
01FE08
ENDCHAR
STARTCHAR 0052
ENCODING 82
SWIDTH 630 0
DWIDTH 21 0
BBX 17 24 2 0
BITMAP
FFF800
FFFC00
E01F00
E00700
E00380
E00380
E00180
E00180
E00180
E00380
E00380
E00700
E01F00
FFFE00
FFF800
E01800
E01C00
E00C00
E00E00
E00600
E00700
E00300
E00380
E00180
ENDCHAR
STARTCHAR 0053
ENCODING 83
SWIDTH 630 0
DWIDTH 21 0
BBX 18 24 1 0
BITMAP
03F800
0FFE00
1F3F00
380780
7003C0
7001C0
7000C0
700000
780000
3E0000
1FC000
07FC00
00FF00
000F80
0003C0
0001C0
0000C0
E000C0
E000C0
7001C0
380380
3F1F80
0FFE00
03F800
ENDCHAR
STARTCHAR 0054
ENCODING 84
SWIDTH 600 0
DWIDTH 20 0
BBX 20 24 0 0
BITMAP
FFFFF0
FFFFF0
006000
006000
006000
006000
006000
006000
006000
006000
006000
006000
006000
006000
006000
006000
006000
006000
006000
006000
006000
006000
006000
006000
ENDCHAR
STARTCHAR 0055
ENCODING 85
SWIDTH 690 0
DWIDTH 23 0
BBX 19 24 2 0
BITMAP
E00060
E00060
E00060
E00060
E00060
E00060
E00060
E00060
E00060
E00060
E00060
E00060
E00060
E00060
E00060
E00060
E000E0
6000E0
7000C0
7001C0
3C0380
1F9F00
0FFE00
03F800
ENDCHAR
STARTCHAR 0056
ENCODING 86
SWIDTH 600 0
DWIDTH 20 0
BBX 20 24 0 0
BITMAP
E00070
600060
700060
7000E0
3000C0
3801C0
3801C0
180180
1C0380
1C0380
0C0300
0E0700
0E0700
060600
070E00
070E00
030C00
039C00
019C00
019800
01F800
00F800
00F000
00F000
ENDCHAR
STARTCHAR 0057
ENCODING 87
SWIDTH 930 0
DWIDTH 31 0
BBX 29 24 1 0
BITMAP
C0070018
E0070018
E0078038
600F8038
600F8030
700D8070
701DC070
301DC060
3818C060
3818E0E0
1838E0E0
183860C0
1C3060C0
1C7071C0
0C707180
0C603180
0E603B80
06E03B80
06E01B00
07C01B00
07C01F00
03C01E00
03800E00
03800E00
ENDCHAR
STARTCHAR 0058
ENCODING 88
SWIDTH 600 0
DWIDTH 20 0
BBX 19 24 1 0
BITMAP
E001C0
7001C0
700380
380700
1C0700
1C0E00
0E1C00
071C00
073800
03F000
01E000
01E000
01E000
01F000
03F000
073800
0E1C00
0E1C00
1C0E00
380700
380300
700380
E001C0
E000E0
ENDCHAR
STARTCHAR 0059
ENCODING 89
SWIDTH 570 0
DWIDTH 19 0
BBX 18 24 0 0
BITMAP
E001C0
7001C0
700380
380380
180700
1C0600
0E0E00
0E1C00
071C00
073800
03B000
01F000
01E000
00E000
00E000
00E000
00E000
00E000
00E000
00E000
00E000
00E000
00E000
00E000
ENDCHAR
STARTCHAR 005A
ENCODING 90
SWIDTH 600 0
DWIDTH 20 0
BBX 17 24 2 0
BITMAP
FFFF80
FFFF00
000700
000E00
001C00
001C00
003800
003800
007000
00E000
00E000
01C000
038000
038000
070000
070000
0E0000
1C0000
1C0000
380000
700000
700000
FFFF80
FFFF80
ENDCHAR
STARTCHAR 005B
ENCODING 91
SWIDTH 420 0
DWIDTH 14 0
BBX 6 36 5 -7
BITMAP
FC
FC
C0
C0
C0
C0
C0
C0
C0
C0
C0
C0
C0
C0
C0
C0
C0
C0
C0
C0
C0
C0
C0
C0
C0
C0
C0
C0
C0
C0
C0
C0
C0
C0
FC
FC
ENDCHAR
STARTCHAR 005C
ENCODING 92
SWIDTH 390 0
DWIDTH 13 0
BBX 9 24 2 0
BITMAP
E000
E000
6000
6000
7000
7000
3000
3800
3800
1800
1800
1C00
1C00
0C00
0C00
0E00
0E00
0600
0600
0700
0700
0300
0380
0380
ENDCHAR
STARTCHAR 005D
ENCODING 93
SWIDTH 420 0
DWIDTH 14 0
BBX 6 36 3 -7
BITMAP
FC
FC
0C
0C
0C
0C
0C
0C
0C
0C
0C
0C
0C
0C
0C
0C
0C
0C
0C
0C
0C
0C
0C
0C
0C
0C
0C
0C
0C
0C
0C
0C
0C
0C
FC
FC
ENDCHAR
STARTCHAR 005E
ENCODING 94
SWIDTH 660 0
DWIDTH 22 0
BBX 15 9 4 15
BITMAP
0300
0780
0FC0
1EE0
3C70
7838
F01C
E00E
4004
ENDCHAR
STARTCHAR 005F
ENCODING 95
SWIDTH 660 0
DWIDTH 22 0
BBX 22 2 0 -3
BITMAP
FFFFFC
FFFFFC
ENDCHAR
STARTCHAR 0060
ENCODING 96
SWIDTH 480 0
DWIDTH 16 0
BBX 4 5 6 27
BITMAP
C0
C0
60
60
70
ENDCHAR
STARTCHAR 0061
ENCODING 97
SWIDTH 570 0
DWIDTH 19 0
BBX 16 18 1 0
BITMAP
07F0
1FF8
3E3C
380E
7006
0006
0006
00FF
0FFF
3F87
7807
6007
E007
E00F
601F
787F
3FF7
1FC7
ENDCHAR
STARTCHAR 0062
ENCODING 98
SWIDTH 600 0
DWIDTH 20 0
BBX 16 24 2 0
BITMAP
E000
E000
E000
E000
E000
E000
E3E0
EFF8
FE3C
F80E
F006
E007
E007
E003
E003
E003
E003
E007
E007
F006
F80E
FE3C
EFF8
E7E0
ENDCHAR
STARTCHAR 0063
ENCODING 99
SWIDTH 540 0
DWIDTH 18 0
BBX 16 18 1 0
BITMAP
03F0
0FFC
1E3E
380F
7007
7000
6000
E000
E000
E000
E000
6000
7000
7007
380F
1F3E
0FFC
03F0
ENDCHAR
STARTCHAR 0064
ENCODING 100
SWIDTH 600 0
DWIDTH 20 0
BBX 16 24 1 0
BITMAP
0003
0003
0003
0003
0003
0003
07E3
0FFB
3E3F
380F
7007
7003
6003
E003
E003
E003
E003
6003
7003
7007
380F
1E3F
0FFB
07E3
ENDCHAR
STARTCHAR 0065
ENCODING 101
SWIDTH 570 0
DWIDTH 19 0
BBX 17 18 1 0
BITMAP
03F000
0FFC00
1E3E00
380700
700700
700380
600380
E00380
FFFF80
FFFF80
E00000
600000
600000
700380
380700
1F3E00
0FFC00
03F000
ENDCHAR
STARTCHAR 0066
ENCODING 102
SWIDTH 360 0
DWIDTH 12 0
BBX 10 24 1 0
BITMAP
07C0
0FC0
1E00
1C00
1C00
1C00
FFC0
FFC0
1C00
1C00
1C00
1C00
1C00
1C00
1C00
1C00
1C00
1C00
1C00
1C00
1C00
1C00
1C00
1C00
ENDCHAR
STARTCHAR 0067
ENCODING 103
SWIDTH 600 0
DWIDTH 20 0
BBX 16 26 1 -8
BITMAP
07E3
0FFB
3E3F
380F
7007
7003
6003
E003
E003
E003
E003
6003
7003
7007
380F
1E3F
0FFB
07E3
0003
0003
0007
3007
380E
3E7E
1FFC
07F0
ENDCHAR
STARTCHAR 0068
ENCODING 104
SWIDTH 600 0
DWIDTH 20 0
BBX 16 24 2 0
BITMAP
E000
E000
E000
E000
E000
E000
E3E0
EFF8
FE7C
F81E
F00E
E006
E007
E007
E007
E007
E007
E007
E007
E007
E007
E007
E007
E007
ENDCHAR
STARTCHAR 0069
ENCODING 105
SWIDTH 240 0
DWIDTH 8 0
BBX 2 24 3 0
BITMAP
C0
C0
C0
00
00
00
C0
C0
C0
C0
C0
C0
C0
C0
C0
C0
C0
C0
C0
C0
C0
C0
C0
C0
ENDCHAR
STARTCHAR 006A
ENCODING 106
SWIDTH 240 0
DWIDTH 8 0
BBX 6 32 0 -8
BITMAP
1C
1C
1C
00
00
00
1C
1C
1C
1C
1C
1C
1C
1C
1C
1C
1C
1C
1C
1C
1C
1C
1C
1C
1C
1C
1C
1C
1C
3C
F8
F0
ENDCHAR
STARTCHAR 006B
ENCODING 107
SWIDTH 510 0
DWIDTH 17 0
BBX 15 24 2 0
BITMAP
E000
E000
E000
E000
E000
E000
E03C
E078
E070
E0E0
E1C0
E380
E700
EE00
FC00
FC00
EE00
E700
E380
E1C0
E0E0
E078
E03C
E01E
ENDCHAR
STARTCHAR 006C
ENCODING 108
SWIDTH 240 0
DWIDTH 8 0
BBX 2 24 3 0
BITMAP
C0
C0
C0
C0
C0
C0
C0
C0
C0
C0
C0
C0
C0
C0
C0
C0
C0
C0
C0
C0
C0
C0
C0
C0
ENDCHAR
STARTCHAR 006D
ENCODING 109
SWIDTH 840 0
DWIDTH 28 0
BBX 24 18 2 0
BITMAP
E7C0F8
FFF3FC
F87F1E
F03E07
E01C07
E01C03
E01C03
E01803
E01803
E01803
E01803
E01803
E01803
E01803
E01803
E01803
E01803
E01803
ENDCHAR
STARTCHAR 006E
ENCODING 110
SWIDTH 600 0
DWIDTH 20 0
BBX 16 18 2 0
BITMAP
E3E0
EFF8
FE7C
F81E
F00E
E006
E007
E007
E007
E007
E007
E007
E007
E007
E007
E007
E007
E007
ENDCHAR
STARTCHAR 006F
ENCODING 111
SWIDTH 600 0
DWIDTH 20 0
BBX 17 18 1 0
BITMAP
03F000
0FFC00
1F3E00
380700
700300
700380
600380
E00180
E00180
E00180
E00180
600380
700380
700300
380700
1F3E00
0FFC00
03F000
ENDCHAR
STARTCHAR 0070
ENCODING 112
SWIDTH 600 0
DWIDTH 20 0
BBX 16 26 2 -8
BITMAP
E3E0
EFF8
FE3C
F80E
F006
E007
E007
E003
E003
E003
E003
E007
E007
F006
F80E
FE3C
EFF8
E3E0
E000
E000
E000
E000
E000
E000
E000
E000
ENDCHAR
STARTCHAR 0071
ENCODING 113
SWIDTH 600 0
DWIDTH 20 0
BBX 16 26 1 -8
BITMAP
07E3
0FFB
3E3F
380F
7007
7003
6003
E003
E003
E003
E003
6003
7003
7007
380F
1E3F
0FFB
07E3
0003
0003
0003
0003
0003
0003
0003
0003
ENDCHAR
STARTCHAR 0072
ENCODING 114
SWIDTH 360 0
DWIDTH 12 0
BBX 9 18 2 0
BITMAP
E780
EF80
FC00
F800
F000
E000
E000
E000
E000
E000
E000
E000
E000
E000
E000
E000
E000
E000
ENDCHAR
STARTCHAR 0073
ENCODING 115
SWIDTH 540 0
DWIDTH 18 0
BBX 15 18 1 0
BITMAP
07E0
1FF8
3C3C
701E
600E
6000
7800
3E00
0FE0
01F8
003C
000E
0006
E00E
700E
7C3C
1FF8
07E0
ENDCHAR
STARTCHAR 0074
ENCODING 116
SWIDTH 390 0
DWIDTH 13 0
BBX 12 23 0 0
BITMAP
0E00
0E00
0E00
0E00
0E00
FFF0
FFF0
0E00
0E00
0E00
0E00
0E00
0E00
0E00
0E00
0E00
0E00
0E00
0E00
0E00
0700
07F0
01F0
ENDCHAR
STARTCHAR 0075
ENCODING 117
SWIDTH 600 0
DWIDTH 20 0
BBX 15 18 2 0
BITMAP
C006
C006
C006
C006
C006
C006
C006
C006
C006
C006
E006
E006
E00E
600E
701E
3C7E
1FF6
0FC6
ENDCHAR
STARTCHAR 0076
ENCODING 118
SWIDTH 510 0
DWIDTH 17 0
BBX 15 18 1 0
BITMAP
C006
E00E
600C
601C
701C
3018
3038
3838
1830
1C70
1C60
0C60
0EE0
06C0
06C0
07C0
0380
0380
ENDCHAR
STARTCHAR 0077
ENCODING 119
SWIDTH 780 0
DWIDTH 26 0
BBX 24 18 1 0
BITMAP
C03807
E03806
E03C06
603C0E
607C0E
706E0C
30661C
30E61C
38C718
18C318
19C338
1D8330
1D81B0
0D81F0
0F01E0
0F01E0
0700E0
0600E0
ENDCHAR
STARTCHAR 0078
ENCODING 120
SWIDTH 540 0
DWIDTH 18 0
BBX 16 18 1 0
BITMAP
E007
700E
701C
3838
1C38
0E70
0EE0
07C0
0380
03C0
07C0
0EE0
0E70
1C38
381C
701C
E00E
E007
ENDCHAR
STARTCHAR 0079
ENCODING 121
SWIDTH 540 0
DWIDTH 18 0
BBX 16 26 1 -8
BITMAP
C007
E006
6006
700E
700C
301C
381C
1818
1C38
1C30
0C30
0E70
0660
0760
07E0
03C0
03C0
01C0
0180
0380
0300
0300
0700
0600
0E00
0E00
ENDCHAR
STARTCHAR 007A
ENCODING 122
SWIDTH 540 0
DWIDTH 18 0
BBX 15 18 1 0
BITMAP
7FFE
7FFE
001C
0038
0030
0070
00E0
01C0
0180
0300
0700
0E00
1C00
1800
3800
7000
FFFE
FFFE
ENDCHAR
STARTCHAR 007B
ENCODING 123
SWIDTH 420 0
DWIDTH 14 0
BBX 8 36 5 -7
BITMAP
1F
3F
30
30
30
30
30
30
30
30
30
30
30
30
30
70
E0
E0
E0
E0
70
30
30
30
30
30
30
30
30
30
30
30
30
30
3F
1F
ENDCHAR
STARTCHAR 007C
ENCODING 124
SWIDTH 240 0
DWIDTH 8 0
BBX 2 24 3 0
BITMAP
C0
C0
C0
C0
C0
C0
C0
C0
C0
C0
C0
C0
C0
C0
C0
C0
C0
C0
C0
C0
C0
C0
C0
C0
ENDCHAR
STARTCHAR 007D
ENCODING 125
SWIDTH 420 0
DWIDTH 14 0
BBX 8 36 1 -7
BITMAP
F8
FC
0C
0C
0C
0C
0C
0C
0C
0C
0C
0C
0C
0C
0C
0E
07
07
07
07
0E
0C
0C
0C
0C
0C
0C
0C
0C
0C
0C
0C
0C
0C
FC
F8
ENDCHAR
STARTCHAR 007E
ENCODING 126
SWIDTH 660 0
DWIDTH 22 0
BBX 14 5 4 8
BITMAP
7C0C
FF0C
FFFC
C3FC
C0F8
ENDCHAR
STARTCHAR 00A0
ENCODING 160
SWIDTH 210 0
DWIDTH 7 0
BBX 0 0 0 0
BITMAP
ENDCHAR
STARTCHAR 00A1
ENCODING 161
SWIDTH 300 0
DWIDTH 10 0
BBX 2 24 4 -6
BITMAP
C0
C0
C0
00
00
00
C0
C0
C0
C0
C0
C0
C0
C0
C0
C0
C0
C0
C0
C0
C0
C0
C0
C0
ENDCHAR
STARTCHAR 00A2
ENCODING 162
SWIDTH 540 0
DWIDTH 18 0
BBX 16 25 1 -1
BITMAP
00C0
00C0
00C0
03F0
0FFC
1E3E
380F
7007
7002
6000
E000
E000
E000
E000
E000
6000
7000
7007
380F
1E3E
0FFC
03F0
00C0
00C0
00C0
ENDCHAR
STARTCHAR 00A3
ENCODING 163
SWIDTH 570 0
DWIDTH 19 0
BBX 17 24 1 0
BITMAP
00F800
03FC00
07DE00
070700
0E0300
0E0380
0E0000
0E0000
0E0000
0E0000
0E0000
FFF800
FFF800
0E0000
0E0000
0E0000
0E0000
0E0000
0E0000
0E0000
0E0000
1E0000
FFFF00
FFFF00
ENDCHAR
STARTCHAR 00A4
ENCODING 164
SWIDTH 630 0
DWIDTH 21 0
BBX 19 20 1 2
BITMAP
400040
E1F8E0
77FFE0
3F1FC0
1C0780
380180
3001C0
7000C0
6000C0
6000C0
6000C0
6000C0
7000C0
3001C0
380180
1C0780
3F1FC0
77FFE0
E1F8E0
400040
ENDCHAR
STARTCHAR 00A5
ENCODING 165
SWIDTH 570 0
DWIDTH 19 0
BBX 18 24 0 0
BITMAP
E001C0
7001C0
700380
380300
180700
1C0E00
0E0E00
0E1C00
071C00
033800
03B000
01F000
01E000
1FFF00
1FFF00
00E000
00E000
00E000
1FFF00
1FFF00
00E000
00E000
00E000
00E000
ENDCHAR
STARTCHAR 00A6
ENCODING 166
SWIDTH 240 0
DWIDTH 8 0
BBX 2 29 3 -5
BITMAP
C0
C0
C0
C0
C0
C0
C0
C0
C0
C0
C0
C0
00
00
00
00
00
C0
C0
C0
C0
C0
C0
C0
C0
C0
C0
C0
C0
ENDCHAR
STARTCHAR 00A7
ENCODING 167
SWIDTH 540 0
DWIDTH 18 0
BBX 14 27 2 -5
BITMAP
0F80
3FE0
78F0
E038
E038
E010
E000
7800
3F80
3FF0
70F8
E03C
C00C
C00C
E00C
F01C
7F38
1FF0
01F0
0038
001C
001C
E01C
E01C
7878
3FF0
1FE0
ENDCHAR
STARTCHAR 00A8
ENCODING 168
SWIDTH 510 0
DWIDTH 17 0
BBX 9 3 4 27
BITMAP
E380
E380
E380
ENDCHAR
STARTCHAR 00A9
ENCODING 169
SWIDTH 810 0
DWIDTH 27 0
BBX 25 25 1 -1
BITMAP
007F0000
03FFC000
07E3F000
0F007800
1C001C00
383E0E00
70FF8E00
71E3C700
61C1C300
E1808300
E3800380
C3000380
C3000380
C3000380
E3800380
E1800300
61C0C300
71E38700
70FF8E00
383E0E00
1C001C00
0F007800
07E3F000
03FFC000
007F0000
ENDCHAR
STARTCHAR 00AA
ENCODING 170
SWIDTH 330 0
DWIDTH 11 0
BBX 8 10 1 9
BITMAP
18
7E
63
03
1F
7B
C3
C3
7D
39
ENDCHAR
STARTCHAR 00AB
ENCODING 171
SWIDTH 540 0
DWIDTH 18 0
BBX 12 14 3 2
BITMAP
0630
0C30
1860
38C0
71C0
6380
C300
E300
6180
30C0
18E0
1C70
0E30
0410
ENDCHAR
STARTCHAR 00AC
ENCODING 172
SWIDTH 600 0
DWIDTH 20 0
BBX 16 6 2 7
BITMAP
FFFF
FFFF
0003
0003
0003
0003
ENDCHAR
STARTCHAR 00AD
ENCODING 173
SWIDTH 420 0
DWIDTH 14 0
BBX 10 2 2 9
BITMAP
FFC0
FFC0
ENDCHAR
STARTCHAR 00AE
ENCODING 174
SWIDTH 630 0
DWIDTH 21 0
BBX 16 16 2 10
BITMAP
03E0
0FF8
1C1C
380E
7007
63E3
6233
C231
C3E1
C243
6223
6237
3006
1C1C
0FF8
03E0
ENDCHAR
STARTCHAR 00AF
ENCODING 175
SWIDTH 480 0
DWIDTH 16 0
BBX 8 2 4 28
BITMAP
FF
FF
ENDCHAR
STARTCHAR 00B0
ENCODING 176
SWIDTH 450 0
DWIDTH 15 0
BBX 12 12 1 12
BITMAP
0F00
3FC0
79E0
6060
E070
C030
C030
E070
E060
79E0
3FC0
1F00
ENDCHAR
STARTCHAR 00B1
ENCODING 177
SWIDTH 600 0
DWIDTH 20 0
BBX 16 15 2 3
BITMAP
0180
0180
0180
0180
FFFF
FFFF
0180
0180
0180
0180
0000
0000
0000
FFFF
FFFF
ENDCHAR
STARTCHAR 00B2
ENCODING 178
SWIDTH 390 0
DWIDTH 13 0
BBX 10 15 2 9
BITMAP
3E00
7F00
E180
C180
C0C0
00C0
0180
0380
0700
0E00
1C00
3800
6000
FFC0
FFC0
ENDCHAR
STARTCHAR 00B3
ENCODING 179
SWIDTH 390 0
DWIDTH 13 0
BBX 10 16 1 8
BITMAP
7FC0
7FC0
0180
0300
0600
0C00
1F00
1F80
0180
00C0
00C0
00C0
C0C0
6180
3F00
1E00
ENDCHAR
STARTCHAR 00B4
ENCODING 180
SWIDTH 480 0
DWIDTH 16 0
BBX 3 5 7 27
BITMAP
60
60
60
C0
C0
ENDCHAR
STARTCHAR 00B5
ENCODING 181
SWIDTH 600 0
DWIDTH 20 0
BBX 16 26 2 -8
BITMAP
E007
E007
E007
E007
E007
E007
E007
E007
E007
E007
E007
E007
E007
F00F
F81F
FE7B
FFF3
E7E3
E000
E000
E000
E000
E000
E000
E000
E000
ENDCHAR
STARTCHAR 00B6
ENCODING 182
SWIDTH 630 0
DWIDTH 21 0
BBX 17 29 2 -5
BITMAP
07F380
1FF380
3FF380
7FF380
7FF380
7FF380
FFF380
FFF380
FFF380
7FF380
7FF380
7FF380
3FF380
1FF380
07F380
007380
007380
007380
007380
007380
007380
007380
007380
007380
007380
007380
007380
007380
007380
ENDCHAR
STARTCHAR 00B7
ENCODING 183
SWIDTH 240 0
DWIDTH 8 0
BBX 4 4 2 8
BITMAP
60
F0
E0
40
ENDCHAR
STARTCHAR 00B8
ENCODING 184
SWIDTH 390 0
DWIDTH 13 0
BBX 5 8 4 -8
BITMAP
30
20
70
38
18
18
F8
F0
ENDCHAR
STARTCHAR 00B9
ENCODING 185
SWIDTH 330 0
DWIDTH 11 0
BBX 5 15 2 9
BITMAP
38
F8
D8
18
18
18
18
18
18
18
18
18
18
18
18
ENDCHAR
STARTCHAR 00BA
ENCODING 186
SWIDTH 360 0
DWIDTH 12 0
BBX 9 9 1 9
BITMAP
1E00
7F00
6180
C180
C180
C180
6180
7F00
3E00
ENDCHAR
STARTCHAR 00BB
ENCODING 187
SWIDTH 540 0
DWIDTH 18 0
BBX 13 14 2 2
BITMAP
C300
6180
31C0
38E0
1C60
0C30
0618
0E38
0C70
1860
30C0
7180
E380
4100
ENDCHAR
STARTCHAR 00BC
ENCODING 188
SWIDTH 960 0
DWIDTH 32 0
BBX 26 24 2 0
BITMAP
38000800
F8001C00
D8003800
18007000
18006000
1800E000
1801C000
18038000
18030000
18070600
180E0C00
181C0C00
18381800
18301800
18703800
00E03180
01C07180
01806180
0380E180
0700FFC0
0E00FFC0
0C000180
1C000180
08000180
ENDCHAR
STARTCHAR 00BD
ENCODING 189
SWIDTH 930 0
DWIDTH 31 0
BBX 27 24 2 0
BITMAP
38000800
F8001C00
D8003800
98007000
18006000
1800E000
1801C000
18038000
18030000
18070F80
180E1FC0
181C38E0
18183060
18302060
18700060
00E00060
01C000E0
018001C0
03800380
07000600
0E000C00
0C003800
1C007FE0
08007FE0
ENDCHAR
STARTCHAR 00BE
ENCODING 190
SWIDTH 990 0
DWIDTH 33 0
BBX 30 24 1 0
BITMAP
7FC00100
7FC00380
01800300
03000600
06000E00
0C001C00
1F003800
1F803000
01807000
00C0E0C0
00C1C0C0
00C18180
C0C38180
61870300
3F0E0300
1E1C0600
00180630
00380C30
00700C30
00E01FFC
00C01FFC
01C00030
03800030
01000030
ENDCHAR
STARTCHAR 00BF
ENCODING 191
SWIDTH 510 0
DWIDTH 17 0
BBX 14 24 2 -6
BITMAP
0300
0300
0300
0000
0000
0000
0000
0300
0300
0700
0700
0E00
3C00
7800
7000
E000
C000
C000
C01C
E01C
E038
7078
7FF0
1FE0
ENDCHAR
STARTCHAR 00C0
ENCODING 192
SWIDTH 630 0
DWIDTH 21 0
BBX 19 32 1 0
BITMAP
038000
018000
018000
00C000
00C000
000000
000000
000000
00E000
01F000
01F000
01B000
03B800
03B800
031800
071C00
070C00
060C00
0E0E00
0E0600
0C0600
1C0700
1C0300
180380
3FFF80
3FFF80
3001C0
7001C0
6000C0
6000E0
E000E0
C00060
ENDCHAR
STARTCHAR 00C1
ENCODING 193
SWIDTH 630 0
DWIDTH 21 0
BBX 19 32 1 0
BITMAP
001800
003000
003000
006000
006000
000000
000000
000000
00E000
01F000
01F000
01B000
03B800
03B800
031800
071C00
071C00
060C00
0E0E00
0E0600
0C0600
1C0700
1C0300
180380
3FFF80
3FFF80
3001C0
7001C0
6000C0
6000E0
E000E0
C00060
ENDCHAR
STARTCHAR 00C2
ENCODING 194
SWIDTH 630 0
DWIDTH 21 0
BBX 19 31 1 0
BITMAP
00F000
01B000
031800
070C00
000000
000000
000000
00E000
01F000
01F000
01B000
03B800
03B800
031800
071C00
071C00
060C00
0E0E00
0E0600
0C0600
1C0700
1C0300
180380
3FFF80
3FFF80
3001C0
7001C0
6000C0
6000E0
E000E0
C00060
ENDCHAR
STARTCHAR 00C3
ENCODING 195
SWIDTH 630 0
DWIDTH 21 0
BBX 19 32 1 0
BITMAP
078600
07E600
0CFC00
043C00
000000
000000
000000
000000
00E000
01F000
01F000
01B000
03B800
03B800
031800
071C00
071C00
060C00
0E0E00
0E0600
0C0600
1C0700
1C0300
180380
3FFF80
3FFF80
3001C0
7001C0
6000C0
6000E0
E000E0
C00060
ENDCHAR
STARTCHAR 00C4
ENCODING 196
SWIDTH 630 0
DWIDTH 21 0
BBX 19 30 1 0
BITMAP
071C00
071C00
071C00
000000
000000
000000
00E000
01F000
01F000
01B000
03B800
03B800
031800
071C00
071C00
060C00
0E0E00
0E0600
0C0600
1C0700
1C0300
180380
3FFF80
3FFF80
3001C0
7001C0
6000C0
6000E0
E000E0
C00060
ENDCHAR
STARTCHAR 00C5
ENCODING 197
SWIDTH 630 0
DWIDTH 21 0
BBX 19 33 1 0
BITMAP
00E000
01F800
031800
031800
031800
01F800
00E000
000000
000000
00E000
01F000
01F000
01B000
03B800
03B800
031800
071C00
071C00
060C00
0E0E00
0E0600
0C0600
1C0700
1C0300
180380
3FFF80
3FFF80
3001C0
7001C0
6000C0
6000E0
E000E0
C00060
ENDCHAR
STARTCHAR 00C6
ENCODING 198
SWIDTH 930 0
DWIDTH 31 0
BBX 28 24 1 0
BITMAP
00FFFFF0
01FFFFF0
01C60000
01860000
03860000
03860000
03060000
07060000
07060000
06060000
0E060000
0E07FFC0
0C07FFC0
1C060000
18060000
18060000
3FFE0000
3FFE0000
30060000
70060000
60060000
60060000
E007FFF0
C007FFF0
ENDCHAR
STARTCHAR 00C7
ENCODING 199
SWIDTH 720 0
DWIDTH 24 0
BBX 21 32 1 -8
BITMAP
01FE00
07FF80
0FCFC0
1E00E0
380070
700038
700038
600018
E00000
E00000
E00000
E00000
E00000
E00000
E00000
E00000
600018
700038
700038
380070
1C00E0
0F8FC0
07FF80
01FE00
003000
003000
003800
001C00
000C00
000C00
007800
007000
ENDCHAR
STARTCHAR 00C8
ENCODING 200
SWIDTH 570 0
DWIDTH 19 0
BBX 15 32 2 0
BITMAP
0700
0300
0300
0180
0180
0000
0000
0000
FFFE
FFFE
E000
E000
E000
E000
E000
E000
E000
E000
E000
FFF8
FFF8
E000
E000
E000
E000
E000
E000
E000
E000
E000
FFFE
FFFE
ENDCHAR
STARTCHAR 00C9
ENCODING 201
SWIDTH 570 0
DWIDTH 19 0
BBX 15 32 2 0
BITMAP
0060
0060
00C0
00C0
01C0
0000
0000
0000
FFFE
FFFE
E000
E000
E000
E000
E000
E000
E000
E000
E000
FFF8
FFF8
E000
E000
E000
E000
E000
E000
E000
E000
E000
FFFE
FFFE
ENDCHAR
STARTCHAR 00CA
ENCODING 202
SWIDTH 570 0
DWIDTH 19 0
BBX 15 31 2 0
BITMAP
03C0
06C0
0C60
1C30
0000
0000
0000
FFFE
FFFE
E000
E000
E000
E000
E000
E000
E000
E000
E000
FFF8
FFF8
E000
E000
E000
E000
E000
E000
E000
E000
E000
FFFE
FFFE
ENDCHAR
STARTCHAR 00CB
ENCODING 203
SWIDTH 570 0
DWIDTH 19 0
BBX 15 30 2 0
BITMAP
1C70
1C70
1C70
0000
0000
0000
FFFE
FFFE
E000
E000
E000
E000
E000
E000
E000
E000
E000
FFF8
FFF8
E000
E000
E000
E000
E000
E000
E000
E000
E000
FFFE
FFFE
ENDCHAR
STARTCHAR 00CC
ENCODING 204
SWIDTH 240 0
DWIDTH 8 0
BBX 4 32 1 0
BITMAP
C0
C0
60
60
30
00
00
00
30
30
30
30
30
30
30
30
30
30
30
30
30
30
30
30
30
30
30
30
30
30
30
30
ENDCHAR
STARTCHAR 00CD
ENCODING 205
SWIDTH 240 0
DWIDTH 8 0
BBX 4 32 3 0
BITMAP
30
60
60
60
C0
00
00
00
C0
C0
C0
C0
C0
C0
C0
C0
C0
C0
C0
C0
C0
C0
C0
C0
C0
C0
C0
C0
C0
C0
C0
C0
ENDCHAR
STARTCHAR 00CE
ENCODING 206
SWIDTH 240 0
DWIDTH 8 0
BBX 9 31 -1 0
BITMAP
1E00
3F00
7380
E180
0000
0000
0000
0C00
0C00
0C00
0C00
0C00
0C00
0C00
0C00
0C00
0C00
0C00
0C00
0C00
0C00
0C00
0C00
0C00
0C00
0C00
0C00
0C00
0C00
0C00
0C00
ENDCHAR
STARTCHAR 00CF
ENCODING 207
SWIDTH 240 0
DWIDTH 8 0
BBX 9 30 -1 0
BITMAP
E180
E180
E180
0000
0000
0000
0C00
0C00
0C00
0C00
0C00
0C00
0C00
0C00
0C00
0C00
0C00
0C00
0C00
0C00
0C00
0C00
0C00
0C00
0C00
0C00
0C00
0C00
0C00
0C00
ENDCHAR
STARTCHAR 00D0
ENCODING 208
SWIDTH 660 0
DWIDTH 22 0
BBX 21 24 0 0
BITMAP
3FFC00
3FFF00
381F80
3801C0
3800E0
380060
380070
380070
380030
380038
380038
FFE038
FFE038
380038
380038
380030
380070
380070
380060
3800E0
3801C0
380F80
3FFF00
3FFC00
ENDCHAR
STARTCHAR 00D1
ENCODING 209
SWIDTH 690 0
DWIDTH 23 0
BBX 18 31 2 0
BITMAP
038600
07E600
067E00
063C00
000000
000000
000000
E000C0
F000C0
F000C0
F800C0
FC00C0
EE00C0
EE00C0
E700C0
E380C0
E380C0
E1C0C0
E0E0C0
E0E0C0
E070C0
E038C0
E038C0
E01CC0
E00EC0
E00EC0
E007C0
E003C0
E003C0
E001C0
E000C0
ENDCHAR
STARTCHAR 00D2
ENCODING 210
SWIDTH 720 0
DWIDTH 24 0
BBX 22 31 1 0
BITMAP
00C000
006000
006000
006000
003000
000000
000000
01FE00
07FF80
0FC7C0
1E00E0
380070
700038
700038
600018
E0001C
E0001C
E0001C
E0001C
E0001C
E0001C
E0001C
E0001C
600018
700038
700038
380070
1C00E0
0F87C0
07FF80
01FE00
ENDCHAR
STARTCHAR 00D3
ENCODING 211
SWIDTH 720 0
DWIDTH 24 0
BBX 22 31 1 0
BITMAP
000C00
000C00
001800
001800
003000
000000
000000
01FE00
07FF80
0FC7C0
1E00E0
380070
700038
700038
600018
E0001C
E0001C
E0001C
E0001C
E0001C
E0001C
E0001C
E0001C
600018
700038
700038
380070
1C00E0
0F87C0
07FF80
01FE00
ENDCHAR
STARTCHAR 00D4
ENCODING 212
SWIDTH 720 0
DWIDTH 24 0
BBX 22 31 1 0
BITMAP
007800
007800
00CC00
018600
038700
000000
000000
01FE00
07FF80
0FC7C0
1E00E0
380070
700038
700038
600018
E0001C
E0001C
E0001C
E0001C
E0001C
E0001C
E0001C
E0001C
600018
700038
700038
380070
1C00E0
0F87C0
07FF80
01FE00
ENDCHAR
STARTCHAR 00D5
ENCODING 213
SWIDTH 720 0
DWIDTH 24 0
BBX 22 30 1 0
BITMAP
01E100
03F300
033F00
000E00
000000
000000
01FE00
07FF80
0FC7C0
1E00E0
380070
700038
700038
600018
E0001C
E0001C
E0001C
E0001C
E0001C
E0001C
E0001C
E0001C
600018
700038
700038
380070
1C00E0
0F87C0
07FF80
01FE00
ENDCHAR
STARTCHAR 00D6
ENCODING 214
SWIDTH 720 0
DWIDTH 24 0
BBX 22 30 1 0
BITMAP
018700
018700
018700
000000
000000
000000
01FE00
07FF80
0FC7C0
1E00E0
380070
700038
700038
600018
E0001C
E0001C
E0001C
E0001C
E0001C
E0001C
E0001C
E0001C
600018
700038
700038
380070
1C00E0
0F87C0
07FF80
01FE00
ENDCHAR
STARTCHAR 00D7
ENCODING 215
SWIDTH 480 0
DWIDTH 16 0
BBX 12 12 2 6
BITMAP
4020
E070
70E0
39C0
1F80
0F00
0F00
1F80
39C0
70E0
E070
4030
ENDCHAR
STARTCHAR 00D8
ENCODING 216
SWIDTH 720 0
DWIDTH 24 0
BBX 23 24 1 0
BITMAP
01FE0C
07FF8E
0FC7FC
1E01F8
380070
7000F8
7001F8
60039C
E0071C
E00E1C
E01C1C
E0381C
E0701C
E0E01C
E1C01C
E3801C
670018
7E0038
7E0038
3C0070
3C00E0
7F87C0
E7FF80
40FE00
ENDCHAR
STARTCHAR 00D9
ENCODING 217
SWIDTH 690 0
DWIDTH 23 0
BBX 19 32 2 0
BITMAP
018000
00C000
00C000
00C000
006000
000000
000000
000000
E00060
E00060
E00060
E00060
E00060
E00060
E00060
E00060
E00060
E00060
E00060
E00060
E00060
E00060
E00060
E00060
E000E0
6000E0
7000C0
7001C0
3C0380
1F9F00
0FFE00
03F800
ENDCHAR
STARTCHAR 00DA
ENCODING 218
SWIDTH 690 0
DWIDTH 23 0
BBX 19 32 2 0
BITMAP
003000
003000
007000
006000
006000
000000
000000
000000
E00060
E00060
E00060
E00060
E00060
E00060
E00060
E00060
E00060
E00060
E00060
E00060
E00060
E00060
E00060
E00060
E000E0
6000E0
7000C0
7001C0
3C0380
1F9F00
0FFE00
03F800
ENDCHAR
STARTCHAR 00DB
ENCODING 219
SWIDTH 690 0
DWIDTH 23 0
BBX 19 31 2 0
BITMAP
00F000
01B800
039800
070C00
000000
000000
000000
E00060
E00060
E00060
E00060
E00060
E00060
E00060
E00060
E00060
E00060
E00060
E00060
E00060
E00060
E00060
E00060
E000E0
6000E0
7000C0
7001C0
3C0380
1F9F00
0FFE00
03F800
ENDCHAR
STARTCHAR 00DC
ENCODING 220
SWIDTH 690 0
DWIDTH 23 0
BBX 19 30 2 0
BITMAP
070C00
070C00
070C00
000000
000000
000000
E00060
E00060
E00060
E00060
E00060
E00060
E00060
E00060
E00060
E00060
E00060
E00060
E00060
E00060
E00060
E00060
E000E0
6000E0
7000C0
7001C0
3C0380
1F9F00
0FFE00
03F800
ENDCHAR
STARTCHAR 00DD
ENCODING 221
SWIDTH 570 0
DWIDTH 19 0
BBX 18 32 0 0
BITMAP
003000
006000
006000
006000
00C000
000000
000000
000000
E001C0
7001C0
700380
380380
180700
1C0600
0E0E00
0E1C00
071C00
073800
03B000
01F000
01E000
00E000
00E000
00E000
00E000
00E000
00E000
00E000
00E000
00E000
00E000
00E000
ENDCHAR
STARTCHAR 00DE
ENCODING 222
SWIDTH 600 0
DWIDTH 20 0
BBX 17 24 2 0
BITMAP
E00000
E00000
E00000
E00000
E00000
FFF800
FFFC00
E01E00
E00700
E00300
E00380
E00380
E00380
E00380
E00300
E00700
E01E00
FFFC00
FFF800
E00000
E00000
E00000
E00000
E00000
ENDCHAR
STARTCHAR 00DF
ENCODING 223
SWIDTH 600 0
DWIDTH 20 0
BBX 16 24 2 0
BITMAP
0FC0
3FF0
7CF8
7038
601C
E01C
E01C
E01C
E018
E038
E1F0
E1F8
E1FC
E01E
E006
E007
E007
E007
E007
E007
E00E
E77E
E7FC
E7F0
ENDCHAR
STARTCHAR 00E0
ENCODING 224
SWIDTH 570 0
DWIDTH 19 0
BBX 16 25 1 0
BITMAP
0300
0300
0380
0180
0180
0000
0000
07F0
1FF8
3E3C
380E
7006
0006
0006
00FF
0FFF
3F87
7807
6007
E007
E00F
601F
787F
3FF7
1FC7
ENDCHAR
STARTCHAR 00E1
ENCODING 225
SWIDTH 570 0
DWIDTH 19 0
BBX 16 25 1 0
BITMAP
0060
0060
00C0
00C0
00C0
0000
0000
07F0
1FF8
3E3C
380E
7006
0006
0006
00FF
0FFF
3F87
7807
6007
E007
E00F
601F
787F
3FF7
1FC7
ENDCHAR
STARTCHAR 00E2
ENCODING 226
SWIDTH 570 0
DWIDTH 19 0
BBX 16 25 1 0
BITMAP
01C0
03E0
0770
0E38
0C18
0000
0000
07F0
1FF8
3E3C
380E
7006
0006
0006
00FF
0FFF
3F87
7807
6007
E007
E00F
601F
787F
3FF7
1FC7
ENDCHAR
STARTCHAR 00E3
ENCODING 227
SWIDTH 570 0
DWIDTH 19 0
BBX 16 24 1 0
BITMAP
070C
0FCC
08FC
0078
0000
0000
07F0
1FF8
3E3C
380E
7006
0006
0006
00FF
0FFF
3F87
7807
6007
E007
E00F
601F
787F
3FF7
1FC7
ENDCHAR
STARTCHAR 00E4
ENCODING 228
SWIDTH 570 0
DWIDTH 19 0
BBX 16 24 1 0
BITMAP
0E38
0E38
0E38
0000
0000
0000
07F0
1FF8
3E3C
380E
7006
0006
0006
00FF
0FFF
3F87
7807
6007
E007
E00F
601F
787F
3FF7
1FC7
ENDCHAR
STARTCHAR 00E5
ENCODING 229
SWIDTH 570 0
DWIDTH 19 0
BBX 16 27 1 0
BITMAP
01C0
03E0
0630
0630
0630
0630
03E0
01C0
0000
07F0
1FF8
3E3C
380E
7006
0006
0006
00FF
0FFF
3F87
7807
6007
E007
E00F
601F
787F
3FF7
1FC7
ENDCHAR
STARTCHAR 00E6
ENCODING 230
SWIDTH 930 0
DWIDTH 31 0
BBX 29 18 1 0
BITMAP
07E03F00
1FF8FFC0
3E7DF1E0
380FC070
700F8030
00070030
00070038
00070018
07FFFFF8
3FFFFFF8
78070000
60070000
E0070000
E00F8038
601DC070
7079F1E0
3FF0FFC0
0FC03F00
ENDCHAR
STARTCHAR 00E7
ENCODING 231
SWIDTH 540 0
DWIDTH 18 0
BBX 16 26 1 -8
BITMAP
03F0
0FFC
1E3E
380F
7007
7000
6000
E000
E000
E000
E000
6000
7000
7007
380F
1F3E
0FFC
07F0
00C0
0180
01C0
0060
0060
0060
03E0
03C0
ENDCHAR
STARTCHAR 00E8
ENCODING 232
SWIDTH 570 0
DWIDTH 19 0
BBX 17 25 1 0
BITMAP
030000
018000
018000
01C000
00C000
000000
000000
03F000
0FFC00
1E3E00
380700
700700
700380
600380
E00380
FFFF80
FFFF80
E00000
600000
600000
700380
380700
1F3E00
0FFC00
03F000
ENDCHAR
STARTCHAR 00E9
ENCODING 233
SWIDTH 570 0
DWIDTH 19 0
BBX 17 25 1 0
BITMAP
003000
006000
006000
006000
00C000
000000
000000
03F000
0FFC00
1E3E00
380700
700700
700380
600380
E00380
FFFF80
FFFF80
E00000
600000
600000
700380
380700
1F3E00
0FFC00
03F000
ENDCHAR
STARTCHAR 00EA
ENCODING 234
SWIDTH 570 0
DWIDTH 19 0
BBX 17 25 1 0
BITMAP
01C000
03E000
033000
063800
0C1C00
000000
000000
03F000
0FFC00
1E3E00
380700
700700
700380
600380
E00380
FFFF80
FFFF80
E00000
600000
600000
700380
380700
1F3E00
0FFC00
03F000
ENDCHAR
STARTCHAR 00EB
ENCODING 235
SWIDTH 570 0
DWIDTH 19 0
BBX 17 24 1 0
BITMAP
0E1800
0E1800
0E1800
000000
000000
000000
03F000
0FFC00
1E3E00
380700
700700
700380
600380
E00380
FFFF80
FFFF80
E00000
600000
600000
700380
380700
1F3E00
0FFC00
03F000
ENDCHAR
STARTCHAR 00EC
ENCODING 236
SWIDTH 240 0
DWIDTH 8 0
BBX 4 26 1 0
BITMAP
C0
C0
60
60
30
00
00
00
30
30
30
30
30
30
30
30
30
30
30
30
30
30
30
30
30
30
ENDCHAR
STARTCHAR 00ED
ENCODING 237
SWIDTH 240 0
DWIDTH 8 0
BBX 4 26 3 0
BITMAP
30
60
60
60
C0
00
00
00
C0
C0
C0
C0
C0
C0
C0
C0
C0
C0
C0
C0
C0
C0
C0
C0
C0
C0
ENDCHAR
STARTCHAR 00EE
ENCODING 238
SWIDTH 240 0
DWIDTH 8 0
BBX 10 25 -1 0
BITMAP
1E00
3F00
7380
E1C0
0000
0000
0000
0C00
0C00
0C00
0C00
0C00
0C00
0C00
0C00
0C00
0C00
0C00
0C00
0C00
0C00
0C00
0C00
0C00
0C00
ENDCHAR
STARTCHAR 00EF
ENCODING 239
SWIDTH 240 0
DWIDTH 8 0
BBX 9 24 -1 0
BITMAP
E180
E180
E180
0000
0000
0000
0C00
0C00
0C00
0C00
0C00
0C00
0C00
0C00
0C00
0C00
0C00
0C00
0C00
0C00
0C00
0C00
0C00
0C00
ENDCHAR
STARTCHAR 00F0
ENCODING 240
SWIDTH 570 0
DWIDTH 19 0
BBX 17 26 1 0
BITMAP
000C00
01DC00
03F800
007800
007C00
00CE00
000700
000300
03F300
0FFB80
1E3F80
380F80
700780
600380
600380
E00380
E00180
E00180
E00380
600380
700380
700700
380F00
1E3E00
0FFC00
07F000
ENDCHAR
STARTCHAR 00F1
ENCODING 241
SWIDTH 600 0
DWIDTH 20 0
BBX 16 24 2 0
BITMAP
0E18
1F98
19F8
0070
0000
0000
E3E0
EFF8
FE7C
F81E
F00E
E006
E007
E007
E007
E007
E007
E007
E007
E007
E007
E007
E007
E007
ENDCHAR
STARTCHAR 00F2
ENCODING 242
SWIDTH 600 0
DWIDTH 20 0
BBX 17 25 1 0
BITMAP
030000
030000
018000
018000
01C000
000000
000000
03F000
0FFC00
1F3E00
380700
700300
700380
600380
E00180
E00180
E00180
E00180
600380
700380
700300
380700
1F3E00
0FFC00
03F000
ENDCHAR
STARTCHAR 00F3
ENCODING 243
SWIDTH 600 0
DWIDTH 20 0
BBX 17 25 1 0
BITMAP
006000
006000
006000
00C000
00C000
000000
000000
03F000
0FFC00
1F3E00
380700
700300
700380
600380
E00180
E00180
E00180
E00180
600380
700380
700300
380700
1F3E00
0FFC00
03F000
ENDCHAR
STARTCHAR 00F4
ENCODING 244
SWIDTH 600 0
DWIDTH 20 0
BBX 17 25 1 0
BITMAP
01C000
03E000
033000
063800
0C1C00
000000
000000
03F000
0FFC00
1F3E00
380700
700300
700380
600380
E00180
E00180
E00180
E00180
600380
700380
700300
380700
1F3E00
0FFC00
03F000
ENDCHAR
STARTCHAR 00F5
ENCODING 245
SWIDTH 600 0
DWIDTH 20 0
BBX 17 24 1 0
BITMAP
070C00
0FCC00
0CFC00
003800
000000
000000
03F000
0FFC00
1F3E00
380700
700300
700380
600380
E00180
E00180
E00180
E00180
600380
700380
700300
380700
1F3E00
0FFC00
03F000
ENDCHAR
STARTCHAR 00F6
ENCODING 246
SWIDTH 600 0
DWIDTH 20 0
BBX 17 24 1 0
BITMAP
0E1800
0E1800
0E1800
000000
000000
000000
03F000
0FFC00
1F3E00
380700
700300
700380
600380
E00180
E00180
E00180
E00180
600380
700380
700300
380700
1F3E00
0FFC00
03F000
ENDCHAR
STARTCHAR 00F7
ENCODING 247
SWIDTH 540 0
DWIDTH 18 0
BBX 14 12 2 6
BITMAP
0300
0300
0300
0000
0000
FFFC
FFFC
0000
0000
0300
0300
0300
ENDCHAR
STARTCHAR 00F8
ENCODING 248
SWIDTH 600 0
DWIDTH 20 0
BBX 18 18 1 0
BITMAP
03F080
0FFDC0
1F3F80
380700
700F80
701F80
603B80
E07180
E0E180
E1C180
E38180
670380
6E0380
780300
380700
7F3E00
FFFC00
43F000
ENDCHAR
STARTCHAR 00F9
ENCODING 249
SWIDTH 600 0
DWIDTH 20 0
BBX 15 26 2 0
BITMAP
0600
0300
0300
0300
0180
0000
0000
0000
C006
C006
C006
C006
C006
C006
C006
C006
C006
C006
E006
E006
E00E
600E
701E
3C7E
1FF6
0FC6
ENDCHAR
STARTCHAR 00FA
ENCODING 250
SWIDTH 600 0
DWIDTH 20 0
BBX 15 26 2 0
BITMAP
00C0
00C0
00C0
0180
0180
0000
0000
0000
C006
C006
C006
C006
C006
C006
C006
C006
C006
C006
E006
E006
E00E
600E
701E
3C7E
1FF6
0FC6
ENDCHAR
STARTCHAR 00FB
ENCODING 251
SWIDTH 600 0
DWIDTH 20 0
BBX 15 25 2 0
BITMAP
03C0
07E0
0E60
1C30
0000
0000
0000
C006
C006
C006
C006
C006
C006
C006
C006
C006
C006
E006
E006
E00E
600E
701E
3C7E
1FF6
0FC6
ENDCHAR
STARTCHAR 00FC
ENCODING 252
SWIDTH 600 0
DWIDTH 20 0
BBX 15 24 2 0
BITMAP
1C30
1C30
1C30
0000
0000
0000
C006
C006
C006
C006
C006
C006
C006
C006
C006
C006
E006
E006
E00E
600E
701E
3C7E
1FF6
0FC6
ENDCHAR
STARTCHAR 00FD
ENCODING 253
SWIDTH 540 0
DWIDTH 18 0
BBX 16 34 1 -8
BITMAP
0060
00C0
00C0
0180
0180
0000
0000
0000
C007
E006
6006
700E
700C
301C
381C
1818
1C38
1C30
0C30
0E70
0660
0760
07E0
03C0
03C0
01C0
0180
0380
0300
0300
0700
0600
0E00
0E00
ENDCHAR
STARTCHAR 00FE
ENCODING 254
SWIDTH 600 0
DWIDTH 20 0
BBX 16 32 2 -8
BITMAP
E000
E000
E000
E000
E000
E000
E3E0
EFF8
FE3C
F80E
F006
E007
E007
E003
E003
E003
E003
E007
E007
F006
F80E
FE3C
EFF8
E3E0
E000
E000
E000
E000
E000
E000
E000
E000
ENDCHAR
STARTCHAR 00FF
ENCODING 255
SWIDTH 540 0
DWIDTH 18 0
BBX 16 32 1 -8
BITMAP
1C30
1C30
1C30
0000
0000
0000
C007
E006
6006
700E
700C
301C
381C
1818
1C38
1C30
0C30
0E70
0660
0760
07E0
03C0
03C0
01C0
0180
0380
0300
0300
0700
0600
0E00
0E00
ENDCHAR
ENDFONT
